<?xml version="1.0" encoding="UTF-8"?>
<svg id="Layer_1" xmlns="http://www.w3.org/2000/svg" version="1.1" viewBox="0 0 406.7 44.8">
  <!-- Generator: Adobe Illustrator 29.3.1, SVG Export Plug-In . SVG Version: 2.1.0 Build 151)  -->
  <defs>
    <style>
      .st0 {
        fill: #1d1d1b;
      }
    </style>
  </defs>
  <path id="Path_1" class="st0" d="M121.6,36v-12.1h-12.5v12.1h-3.3V9.8h3.3v11h12.5v-11h3.3v26.2h-3.3Z"/>
  <g id="Group_1">
    <path id="Path_2" class="st0" d="M144.6,36.3c-1.5,0-2.7-1.2-2.7-2.6,0,0,0-.2,0-.2h0c-1.3,2-3.6,3.2-6,3.1-4.3,0-6.4-2.9-6.4-5.8s1.6-5.6,6.6-5.8l5.7-.3v-1.4c0-1-.3-2.1-1-2.9-.9-.7-2-1.1-3.1-1-1.2-.1-2.5.3-3.4,1.1-.6.6-.9,1.4-.9,2.3h-3.1c0-1.5.6-2.9,1.6-3.9,1.6-1.4,3.6-2.1,5.8-2,3.6,0,5.7,1.6,6.6,3.6.4.9.6,1.9.6,2.9v9.1c0,1,.4,1.3,1,1.3.3,0,.5,0,.8-.1v2.3c-.6.3-1.4.5-2.1.4M141.8,27l-5,.3c-1.9.1-4.1,1-4.1,3.4s1,3.2,3.7,3.2c1.4,0,2.8-.5,3.8-1.5,1.1-1.2,1.6-2.7,1.6-4.3v-1.1Z"/>
    <path id="Path_3" class="st0" d="M159.1,20.2c-1.3,0-2.6.5-3.5,1.5-1.5,1.4-1.7,4-1.7,6v8.3h-3.1v-18.7h2.8l.3,3.3c1-2.2,3.2-3.5,5.6-3.4.5,0,1,0,1.5.1v3.1c-.6-.1-1.2-.2-1.7-.1"/>
    <path id="Path_4" class="st0" d="M177.1,36.3c-1.5,0-2.7-1.2-2.7-2.6,0,0,0-.2,0-.2h0c-1.3,2-3.6,3.2-6,3.1-4.3,0-6.4-2.9-6.4-5.8s1.6-5.6,6.6-5.8l5.7-.3v-1.4c0-1-.3-2.1-1-2.9-.9-.7-2-1.1-3.1-1-1.2-.1-2.5.3-3.4,1.1-.6.6-.9,1.4-.9,2.3h-3.1c0-1.5.6-2.9,1.6-3.9,1.6-1.4,3.6-2.1,5.8-2,3.6,0,5.7,1.6,6.6,3.6.4.9.6,1.9.6,2.9v9.1c0,1,.4,1.3,1,1.3.3,0,.5,0,.8-.1v2.3c-.6.3-1.4.5-2.1.4M174.3,27l-5,.3c-1.9.1-4.1,1-4.1,3.4s1,3.2,3.7,3.2c1.4,0,2.8-.5,3.8-1.5,1.1-1.2,1.6-2.7,1.6-4.3v-1.1Z"/>
    <path id="Path_5" class="st0" d="M187,36.2c-2.7,0-3.9-1.6-3.9-4.6V9.3h3.1v22.2c0,1.3.4,1.9,1.7,1.9.4,0,.9,0,1.3,0v2.7c-.7.2-1.5.3-2.2.2"/>
    <path id="Path_6" class="st0" d="M205.1,36l-.2-2.4c-1.2,1.9-3.3,3-5.6,2.9-2,0-3.9-.7-5.3-2-1.9-2.2-2.8-4.9-2.7-7.8,0-3.2,1-6.2,2.8-8,1.4-1.3,3.2-1.9,5.1-1.9,2,0,4.4,1,5.4,2.7v-10.2h3.1v26.7h-2.8ZM202.9,20.7c-.8-.8-1.9-1.2-3-1.2-4.2,0-5.3,3.7-5.3,7.2s1.1,7.2,5.3,7.2c1.1,0,2.2-.4,3-1.2,1.5-1.4,2.1-3.6,2.1-6s-.5-4.6-2.1-6"/>
    <path id="Path_7" class="st0" d="M243.5,36V13.9l-8.1,21.8h-2.6l-8.1-22v22.3h-3.1V9.8h4.7l7.9,21.4,7.9-21.4h4.6v26.2h-3.1Z"/>
    <path id="Path_8" class="st0" d="M266.4,36.3c-1.5,0-2.7-1.1-2.7-2.6,0,0,0-.2,0-.2h0c-1.3,2-3.6,3.2-6,3.1-4.3,0-6.4-2.9-6.4-5.8s1.5-5.6,6.6-5.8l5.7-.3v-1.4c0-1-.3-2.1-1-2.9-.9-.7-2-1.1-3.1-1-1.2-.1-2.5.3-3.4,1.1-.6.6-.9,1.4-.9,2.3h-3.1c0-1.5.6-2.9,1.6-3.9,1.6-1.4,3.6-2.1,5.8-2,3.6,0,5.7,1.6,6.6,3.6.4.9.6,1.9.6,2.9v9.1c0,1,.4,1.3,1,1.3.3,0,.5,0,.8-.1v2.3c-.6.3-1.4.5-2.1.4M263.5,27l-5,.3c-1.9.1-4.1,1-4.1,3.4s1,3.2,3.7,3.2c1.4,0,2.8-.5,3.8-1.5,1.1-1.2,1.6-2.7,1.6-4.3v-1.1Z"/>
    <path id="Path_9" class="st0" d="M278.2,36.3c-4,0-5.1-2.6-5.1-5.1v-11.2h-3.6v-2.7h3.6v-4.8l3.1-.7v5.5h5.5v2.7h-5.5v10.8c0,1.8.8,2.6,2.5,2.6,1.1,0,2.1-.1,3.2-.3v2.7c-1.2.3-2.5.5-3.7.5"/>
    <path id="Path_10" class="st0" d="M297.4,36v-11.9c0-2.8-1.1-4.5-4.1-4.5-1.8,0-3.4,1.2-4.1,2.9-.5,1.5-.8,3.2-.7,4.8v8.7h-3.1V9.3h3.1v10.5c1.2-1.9,3.2-3,5.5-3,4.2,0,6.5,2.6,6.5,6.9v12.3h-3.1Z"/>
    <path id="Path_11" class="st0" d="M306,9.3h3.7v3.7h-3.7v-3.7ZM306.2,17.3h3.2v18.7h-3.2v-18.7Z"/>
    <path id="Path_12" class="st0" d="M327.6,34.4c-3.6,2.8-8.6,2.8-12.1,0-1.1-1.1-1.8-2.7-1.8-4.3h3.1c0,1.2.6,2.2,1.5,2.9,1,.6,2.2.9,3.4.9,1.2,0,2.5-.3,3.4-1,.6-.5.9-1.3.9-2,0-1.4-1-2.4-2.9-2.7l-4.2-.6c-2.8-.4-4.6-2.2-4.6-5,0-1.4.6-2.7,1.5-3.7,1.5-1.4,3.5-2.1,5.5-2.1,2.2-.2,4.4.7,5.9,2.4.9,1,1.3,2.3,1.3,3.6h-3.1c0-.9-.4-1.7-1.1-2.3-.9-.7-2-1.1-3.1-1-.7,0-1.5,0-2.2.4-1.1.4-1.8,1.4-1.9,2.5,0,1.6,1,2.2,2.5,2.4,1,.1,2.5.3,4.5.6,2.9.3,5,3,4.7,5.9-.1,1.2-.6,2.3-1.4,3.1"/>
    <path id="Path_13" class="st0" d="M348.6,27.7h-13.2c0,1.7.6,3.4,1.8,4.7,2,1.7,4.9,1.8,6.9.1.6-.6.9-1.3,1.1-2h3.1c-.3,1.9-1.3,3.5-2.9,4.6-1.4.9-3.1,1.4-4.8,1.4-2.4,0-4.7-1-6.2-2.8-1.6-2-2.4-4.4-2.3-7,0-2.1.4-4.2,1.4-6,1.5-2.5,4.2-4,7-3.9,2.1,0,4.2.8,5.7,2.4,1.6,1.8,2.4,4.2,2.4,6.6v1.9ZM344.2,21.2c-.9-1.1-2.3-1.8-3.7-1.7-3.4,0-5.1,2.8-5.1,5.5h10c0-1.4-.4-2.7-1.1-3.8"/>
    <path id="Path_14" class="st0" d="M364.8,36v-11.9c0-2.8-1.1-4.5-4.1-4.5-1.8,0-3.4,1.2-4.1,2.9-.5,1.5-.8,3.2-.7,4.8v8.7h-3.1v-18.7h2.7l.3,2.8c1.1-2.1,3.3-3.3,5.6-3.3,4.2,0,6.5,2.6,6.5,6.9v12.3h-3.1Z"/>
    <path id="Path_15" class="st0" d="M394.7,17c-1.2,0-2.3-1-2.3-2.2,0,0,0-.1,0-.2h0c-1.1,1.7-3,2.7-5.1,2.6-3.6,0-5.4-2.4-5.4-4.9s1.3-4.7,5.6-4.9l4.8-.3v-1.2c0-.9-.2-1.8-.8-2.4-.7-.6-1.6-.9-2.6-.8-1,0-2.1.3-2.9.9-.5.5-.8,1.2-.8,1.9h-2.6c0-1.2.5-2.4,1.4-3.3,1.3-1.2,3.1-1.8,4.9-1.7,3.1,0,4.8,1.3,5.5,3,.3.8.5,1.6.5,2.4v7.6c0,.8.3,1.1.9,1.1.2,0,.5,0,.7,0v2c-.5.3-1.1.4-1.7.4M392.2,9.2l-4.2.2c-1.6,0-3.5.8-3.5,2.8s.9,2.7,3.1,2.7c1.2,0,2.4-.4,3.2-1.3.9-1,1.4-2.3,1.3-3.6v-.9Z"/>
    <path id="Path_16" class="st0" d="M390.2,21.1l-9.8,23.5h2.8l9.8-23.5h-2.8Z"/>
    <path id="Path_17" class="st0" d="M405.5,40.8c-3,2.4-7.2,2.4-10.2,0-1-1-1.5-2.3-1.5-3.6h2.6c0,1,.5,1.9,1.3,2.5.9.5,1.8.8,2.8.7,1,0,2.1-.2,2.9-.9.5-.4.8-1.1.8-1.7,0-1.2-.8-2-2.5-2.2l-3.5-.5c-2.4-.4-3.9-1.8-3.9-4.2,0-1.2.5-2.3,1.3-3.1,1.3-1.2,2.9-1.8,4.6-1.7,1.9-.1,3.7.6,5,2,.7.8,1.1,1.9,1.1,3h-2.7c0-.7-.4-1.5-.9-2-.7-.6-1.6-.9-2.6-.8-.6,0-1.3,0-1.8.3-.9.3-1.5,1.2-1.6,2.1,0,1.3.8,1.9,2.1,2.1.9.1,2.1.2,3.8.5,2.5.3,4.3,2.5,4,4.9-.1,1-.5,1.9-1.2,2.6"/>
    <path id="Path_18" d="M67.3,0l-11.2,21L45.8,0h-11.4v42h-8.4v-16.9h-15.2v16.9H3.9c-.6,0-1.1-.5-1.1-1.1V2.9h8v14.2h8.6l2.2-2.9h-8V0H0v41.9c0,1.6,1.3,3,3,3h10.7v-16.9h9.5v16.9h14.1V2.9h6.8l12.1,24.4,13-24.4h5.9c.6,0,1,.5,1,1v38.1h-7.8v-13.5l-2.9,3.8v12.6h13.5V2.7C78.8,1.2,77.6,0,76.1,0t0,0h-8.8Z"/>
  </g>
</svg>