<svg id="Group_36" data-name="Group 36" xmlns="http://www.w3.org/2000/svg" xmlns:xlink="http://www.w3.org/1999/xlink" width="327.729" height="186.553" viewBox="0 0 327.729 186.553">
  <defs>
    <clipPath id="clip-path">
      <rect id="Rectangle_8" data-name="Rectangle 8" width="327.729" height="186.553" fill="none"/>
    </clipPath>
  </defs>
  <g id="Group_6" data-name="Group 6" clip-path="url(#clip-path)">
    <path id="Path_23" data-name="Path 23" d="M280.166,0,233.634,87.525,190.453,0H143.039V174.681h-34.8V104.533H44.994v70.148H16.413a4.542,4.542,0,0,1-4.542-4.542V11.87H44.994V70.761H80.913L89.957,58.89H56.865V0H0V174.225a12.327,12.327,0,0,0,12.327,12.327H56.865V116.406h39.5v70.146H154.91V11.87h28.163l50.166,101.685L287.3,11.87h24.349a4.209,4.209,0,0,1,4.209,4.209v158.6H283.345V118.393l-11.871,15.829v52.33h56.255V11.085A11.086,11.086,0,0,0,316.643,0Z" transform="translate(0 0)"/>
  </g>
</svg>
